<svg id="51efc813-5edf-4f3c-82d3-18bdd45762dd" data-name="Camada 1" xmlns="http://www.w3.org/2000/svg" viewBox="0 0 166.257 79.061">
  <defs>
    <style>
      .\39 dc288d3-c315-4c78-b5d7-8f9855533aef, .dcba22bd-6a7e-4d38-8557-a4a90eaa087e {
        fill: #fff;
      }

      .dcba22bd-6a7e-4d38-8557-a4a90eaa087e {
        fill-rule: evenodd;
      }
    </style>
  </defs>
  <title>logorodape2</title>
  <g>
    <g>
      <path class="9dc288d3-c315-4c78-b5d7-8f9855533aef" d="M182.05,584.875a11.78,11.78,0,0,1-4.584-.815,8.563,8.563,0,0,1-3.186-2.233,9.113,9.113,0,0,1-1.845-3.361,14.082,14.082,0,0,1-.6-4.2v-16.9H175.6v16.472q0,4.042,1.787,5.866a6.231,6.231,0,0,0,4.662,1.826,7.385,7.385,0,0,0,2.623-.446,5.234,5.234,0,0,0,2.04-1.38,6.336,6.336,0,0,0,1.321-2.389,11.465,11.465,0,0,0,.466-3.478V557.37h3.769v16.9a14.1,14.1,0,0,1-.6,4.2,8.986,8.986,0,0,1-1.865,3.361,8.78,8.78,0,0,1-3.186,2.233A11.641,11.641,0,0,1,182.05,584.875Z" transform="translate(-97.093 -531.268)"/>
      <path class="9dc288d3-c315-4c78-b5d7-8f9855533aef" d="M198.467,584.293V557.37H214.9v3.225H202.235v8H213.5v3.146H202.235v9.324h13.636v3.225h-17.4Z" transform="translate(-97.093 -531.268)"/>
      <path class="9dc288d3-c315-4c78-b5d7-8f9855533aef" d="M227.509,557.1q5.672,0,8.722,2.156a7.361,7.361,0,0,1,3.049,6.43,8.742,8.742,0,0,1-.835,3.982,6.859,6.859,0,0,1-2.409,2.681,10.994,10.994,0,0,1-3.827,1.5,25.186,25.186,0,0,1-5.089.467h-2.992v9.984h-3.768V557.758a21.486,21.486,0,0,1,3.555-.524Q225.877,557.1,227.509,557.1Zm0.311,3.3q-2.41,0-3.691.116v10.567h2.836a21.859,21.859,0,0,0,3.5-.253,7.907,7.907,0,0,0,2.623-.854,4.217,4.217,0,0,0,1.651-1.651,5.477,5.477,0,0,0,.583-2.681,4.951,4.951,0,0,0-.6-2.563,4.531,4.531,0,0,0-1.632-1.612,7.053,7.053,0,0,0-2.389-.836A17.028,17.028,0,0,0,227.82,560.4Z" transform="translate(-97.093 -531.268)"/>
      <path class="9dc288d3-c315-4c78-b5d7-8f9855533aef" d="M250.957,584.525q-0.816,0-1.768-.038t-1.9-.117q-0.952-.078-1.884-0.194a14.26,14.26,0,0,1-1.709-.311V557.758a14.658,14.658,0,0,1,1.709-.311q0.932-.116,1.884-0.194t1.884-.116q0.932-.038,1.749-0.039a25.953,25.953,0,0,1,4.371.35,11.048,11.048,0,0,1,3.535,1.186,6.408,6.408,0,0,1,2.351,2.194,6.167,6.167,0,0,1,.854,3.342,5.949,5.949,0,0,1-1.049,3.632,6.3,6.3,0,0,1-2.8,2.117,8.133,8.133,0,0,1,3.769,2.215,6.069,6.069,0,0,1,1.4,4.273,6.889,6.889,0,0,1-2.972,6.08Q257.406,584.525,250.957,584.525Zm-3.535-15.812h3.962a17.079,17.079,0,0,0,2.642-.194,6.483,6.483,0,0,0,2.156-.7,3.934,3.934,0,0,0,1.437-1.321,3.735,3.735,0,0,0,.525-2.059,3.4,3.4,0,0,0-.544-1.962,3.944,3.944,0,0,0-1.5-1.282,8.1,8.1,0,0,0-2.234-.719,15.2,15.2,0,0,0-2.719-.232q-1.438,0-2.253.038t-1.476.117v8.313Zm0,3.03v9.479c0.285,0.026.622,0.052,1.01,0.078q0.5,0.038,1.185.058t1.573,0.02a22.385,22.385,0,0,0,3.167-.214,8.9,8.9,0,0,0,2.623-.757,4.608,4.608,0,0,0,1.806-1.516,4.167,4.167,0,0,0,.68-2.447,4.564,4.564,0,0,0-.505-2.234,3.76,3.76,0,0,0-1.457-1.457,7.022,7.022,0,0,0-2.273-.776,17.081,17.081,0,0,0-2.953-.233h-4.856Z" transform="translate(-97.093 -531.268)"/>
    </g>
    <g>
      <g>
        <path class="dcba22bd-6a7e-4d38-8557-a4a90eaa087e" d="M130.548,542.928a15.031,15.031,0,0,0,7.669-11.66l-0.013,7.215c-0.012,6.568-3.249,9.209-7.528,11.6-4.105,2.374-8.3,4.747-12.408,7.11a15.03,15.03,0,0,0-7.669,11.66l0.013-7.215c0.046-5.842,3.17-9.148,7.614-11.606Q124.384,546.471,130.548,542.928Z" transform="translate(-97.093 -531.268)"/>
        <path class="dcba22bd-6a7e-4d38-8557-a4a90eaa087e" d="M130.548,554.816a15.031,15.031,0,0,0,7.669-11.66l-0.013,7.215c-0.012,6.568-3.249,9.209-7.528,11.6-4.105,2.374-8.3,4.747-12.408,7.11a15.03,15.03,0,0,0-7.669,11.66l0.013-7.215c0.013-6.568,3.335-9.214,7.614-11.606Q124.384,558.36,130.548,554.816Z" transform="translate(-97.093 -531.268)"/>
        <path class="dcba22bd-6a7e-4d38-8557-a4a90eaa087e" d="M121.15,596.938c-10.721-.446-16.856-14.871.016-24.735l9.387-5.388a15.031,15.031,0,0,0,7.676-11.656l-0.018,7.215c-0.016,6.568-3.187,9.136-7.467,11.525l-12,6.863C110.826,585.291,112.482,595.525,121.15,596.938Z" transform="translate(-97.093 -531.268)"/>
      </g>
      <path class="dcba22bd-6a7e-4d38-8557-a4a90eaa087e" d="M135.19,582.089a14.628,14.628,0,1,1-28.046,0h-2.369a16.913,16.913,0,1,0,32.785,0H135.19Z" transform="translate(-97.093 -531.268)"/>
      <path class="dcba22bd-6a7e-4d38-8557-a4a90eaa087e" d="M142.306,582.089a21.543,21.543,0,1,1-42.278,0H97.453a24.074,24.074,0,1,0,47.427,0h-2.574Z" transform="translate(-97.093 -531.268)"/>
    </g>
  </g>
</svg>